{"title":"The Hobbit An Unexpected Journey [2012] Extended BRRip 480p x264","uid":9437994,"size":523909466,"categoryP":"video","categoryS":"movies","magnet":"?xt=urn:btih:1f850590fc1bfce695a609c96228e86ca6e2ea76&amp;dn=The+Hobbit+An+Unexpected+Journey+%5B2012%5D+Extended+BRRip+480p+x264&amp;tr=udp%3A%2F%2Ftracker.openbittorrent.com%3A80&amp;tr=udp%3A%2F%2Fopen.demonii.com%3A1337&amp;tr=udp%3A%2F%2Ftracker.coppersurfer.tk%3A6969&amp;tr=udp%3A%2F%2Fexodus.desync.com%3A6969","seeders":6,"leechers":5,"uploader":"Chaudhary1","files":13,"time":1388941831,"description":"[center][img]http://img843.imageshack.us/img843/3355/f8rv.png[/img][/center]\n\n\n\n[center][font=&quot;Comic Sans MS&quot;][b][size=7][color=blue]The[/color] [color=green]Hobbit[/color] [color=red][/color] [/size][/b][/font][/center][center]\n\n\n[center][b][font=&quot;Comic Sans MS&quot;][size=6][color=fuchsia]2012[/color] [/size][/font][/b][/center]\n[center][b][font=&quot;Comic Sans MS&quot;][size=6][color=olive]BluRay[/color] [/size][/font][/b][/center]\n[center][b][font=&quot;Comic Sans MS&quot;][size=6][color=aqua]480p[/color] [color=maroon]x264 [/color][/size][/font][/b][/center]\n\n\n[center][img]http://imageshack.us/a/img191/4668/xz6u.png[/img][/center]\n\n\n[center][font=&quot;Comic Sans MS&quot;][size=5][color=green][b]Complete name                            : The Hobbit An Unexpected Journey [2012] Extended BRRip 480p x264 495MB Dual Audio [Hindi - English] Chaudharyâ„¢.mkv\nFormat                                   : Matroska\nFormat version                           : Version 4 / Version 2\nFile size                                : 495 MiB\nDuration                                 : 3h 2mn\nOverall bit rate                         : 380 Kbps\nMovie name                               : Chaudharyâ„¢\n\nVideo\nID                                       : 1\nFormat                                   : AVC\nFormat/Info                              : Advanced Video Codec\nFormat profile                           : &lt;a class=&quot;__cf_email__&quot; href=&quot;/cdn-cgi/l/email-protection&quot; data-cfemail=&quot;efa7868887afa3dcc1de&quot;&gt;[email&amp;#160;protected]&lt;/a&gt;&lt;script cf-hash='f9e31' type=&quot;text/javascript&quot;&gt;\n/* &lt;![CDATA[ */!function(){try{var t=&quot;currentScript&quot;in document?document.currentScript:function(){for(var t=document.getElementsByTagName(&quot;script&quot;),e=t.length;e--;)if(t[e].getAttribute(&quot;cf-hash&quot;))return t[e]}();if(t&amp;&amp;t.previousSibling){var e,r,n,i,c=t.previousSibling,a=c.getAttribute(&quot;data-cfemail&quot;);if(a){for(e=&quot;&quot;,r=parseInt(a.substr(0,2),16),n=2;a.length-n;n+=2)i=parseInt(a.substr(n,2),16)^r,e+=String.fromCharCode(i);e=document.createTextNode(e),c.parentNode.replaceChild(e,c)}}}catch(u){}}();/* ]]&gt; */&lt;/script&gt;\nFormat settings, CABAC                   : Yes\nFormat settings, ReFrames                : 16 frames\nCodec ID                                 : V_MPEG4/ISO/AVC\nDuration                                 : 3h 2mn\nBit rate                                 : 290 Kbps\nWidth                                    : 720 pixels\nHeight                                   : 304 pixels\nDisplay aspect ratio                     : 2.40:1\nOriginal display aspect ratio            : 2.40:1\nFrame rate mode                          : Constant\nFrame rate                               : 23.976 fps\nColor space                              : YUV\nChroma subsampling                       : 4:2:0\nBit depth                                : 8 bits\nScan type                                : Progressive\nBits/(Pixel*Frame)                       : 0.055\nStream size                              : 371 MiB (75%)\nTitle                                    : Chaudharyâ„¢\nWriting library                          : x264 core 138 r2358 \nLanguage                                 : English\nDefault                                  : Yes\nForced                                   : No\nColor primaries                          : Generic film\nTransfer characteristics                 : BT.709\nMatrix coefficients                      : BT.709\n\nAudio #1\nID                                       : 2\nFormat                                   : MPEG Audio\nFormat version                           : Version 2\nFormat profile                           : Layer 3\nMode                                     : Joint stereo\nMode extension                           : MS Stereo\nCodec ID                                 : A_MPEG/L3\nCodec ID/Hint                            : MP3\nDuration                                 : 3h 2mn\nBit rate mode                            : Constant\nBit rate                                 : 32.0 Kbps\nChannel count                            : 2 channels\nCompression mode                         : Lossy\nStream size                              : 41.8 MiB (8%)\nTitle                                    : Chaudharyâ„¢\nWriting library                          : LAME3.99.5\nLanguage                                 : English\nDefault                                  : Yes\nForced                                   : No\n\nAudio #2\nID                                       : 3\nFormat                                   : AC-3\nFormat/Info                              : Audio Coding 3\nMode extension                           : CM (complete main)\nFormat settings, Endianness              : Big\nCodec ID                                 : A_AC3\nDuration                                 : 3h 2mn\nBit rate mode                            : Constant\nBit rate                                 : 56.0 Kbps\nChannel count                            : 2 channels\nChannel positions                        : Front: L R\nSampling rate                            : 48.0 KHz\nBit depth                                : 16 bits\nCompression mode                         : Lossy\nStream size                              : 73.1 MiB (15%)\nTitle                                    : Chaudharyâ„¢\nLanguage                                 : Hindi\nDefault                                  : No\nForced                                   : No[/b][/color][/size][/font][/center]\n\n\n[center][img]http://i.imgur.com/TC0ZVqa.png[/img]\n[img]http://i.imgur.com/TnRCdPx.png[/img]\n[img]http://i.imgur.com/Ov1elew.png[/img]\n[img]http://i.imgur.com/bkIoZnY.png[/img]\n[img]http://i.imgur.com/5uYHyUn.png[/img]\n[img]http://i.imgur.com/sDlPL9Z.png[/img]\n[img]http://i.imgur.com/doqGtsY.png[/img]\n[img]http://i.imgur.com/Ov2AOOm.png[/img]\n[img]http://i.imgur.com/GS2xKKu.png[/img]\n[img]http://i.imgur.com/aRA3R7j.png[/img]\n[img]http://i.imgur.com/9R2WdiH.png[/img]\n[img]http://i.imgur.com/Ig9BRSE.png[/img][/center]\n\n\n[center][b][font=&quot;Comic Sans MS&quot;][size=6][color=blue]Source Jayp53 ~{HKRG}~ Thanks Mate [/color][/size][/font][/b][/center]\n\n\n[center][quote=&quot;**Extended Parts Have Been Replaced By English Audio**&quot;][/quote][/center]","torrent":{"xt":"urn:btih:1f850590fc1bfce695a609c96228e86ca6e2ea76","amp;dn":"The+Hobbit+An+Unexpected+Journey+%5B2012%5D+Extended+BRRip+480p+x264","amp;tr":["udp%3A%2F%2Ftracker.openbittorrent.com%3A80","udp%3A%2F%2Fopen.demonii.com%3A1337","udp%3A%2F%2Ftracker.coppersurfer.tk%3A6969","udp%3A%2F%2Fexodus.desync.com%3A6969"],"infoHash":"1f850590fc1bfce695a609c96228e86ca6e2ea76","infoHashBuffer":{"type":"Buffer","data":[31,133,5,144,252,27,252,230,149,166,9,201,98,40,232,108,166,226,234,118]},"announce":[],"urlList":[]}}